<svg width="630" height="490" viewBox="0 0 630 490" fill="none" xmlns="http://www.w3.org/2000/svg">
<path d="M624 145.5C628.5 145.5 630 149 630 152V195.5C630 199.5 626.438 200.803 619.5 201.5C601.611 204.72 591.322 207.243 572.5 213C558.031 217.62 551.205 220.423 539.5 225.5C527.824 230.595 521.511 233.777 510.5 240C492.873 249.779 484.187 256.893 469 270C457.598 281.992 452.232 289.168 445 303C442.054 310.465 440.335 315.048 439 324C438.439 332.151 438.495 337.012 439 346C443.474 365.222 447.216 372.271 454.5 383C461.374 394.358 466.704 399.519 476.5 407.5C486.017 415.359 492.443 418.435 506 424C514.972 427.453 521.5 429 524 430C526.5 431 529.5 434.5 529.5 437.5V484.5C529.5 486 527 490 524.5 490H441.5C439.5 490 434.988 486.2 431 484C425.112 480.751 421.677 478.657 415.5 476C406.366 472.071 401.101 470.086 391.5 467.5C380.775 464.611 374.543 463.699 363.5 462.5C344.475 460.435 332.986 461.104 314 463.5L312.914 463.637C300.329 465.223 293.027 466.143 280.5 470.5C266.546 475.353 255.206 480.562 253.5 482C251.794 483.438 241.5 490 240 490H166.5C162.5 490 158.047 487.214 156.5 482V437C156.5 437 157.388 432.775 163 431C168.612 429.225 185 422.789 189.5 420.789C194 418.789 209.146 410.489 221 398.789C228.794 391.097 232.757 386.323 238.5 377C240.593 373.602 242.117 371.29 243.486 368.294C242.662 373.654 243.09 376.9 243.09 376.9C243.095 376.955 243.695 383.069 247.086 384.984C250.837 387.102 253.92 386.59 258.076 385.49C262.318 384.368 267.068 378.921 267.068 378.921C267.158 378.818 468 147 469 146C469.207 145.793 469.414 145.63 469.612 145.5H624ZM267.478 145.5C267.567 145.7 267.587 145.873 267.5 146C267 146.736 252.581 162.15 252.581 162.15C252.506 162.234 227.102 190.45 224.606 193.479C222.109 196.51 220.471 198.09 219.111 203.079C219.111 203.079 218.612 206.111 219.111 208.638C219.611 211.164 224.106 216.216 227.104 216.217H295.044C297.542 216.217 298.041 218.743 298.041 220.259C298.041 221.684 255.961 331.668 247.311 354.881C248.204 347.629 246.976 341.104 245 332.5C243.563 326.24 242.682 322.5 240 317.5C236.782 311.5 232.229 304.891 226.5 301C220.771 297.109 217.599 295.399 212 293C212.06 292.525 198.568 287.968 196 287.5C193.432 287.032 192.5 285.5 192.5 283.5V150C192.5 146.5 193.5 145.5 197 145.5H267.478Z" fill="url(#paint0_linear_8_2)"/>
<path d="M4.00006 165.5H171C172 165.5 176.042 168 176 171.5C175.958 175 176 279 176 281.5C176 284 173.5 283.5 172 283.5C170.5 283.5 164.28 282.865 160 282C149.138 279.804 143.11 278.199 132.5 275C123.809 272.38 110.5 267.5 110.5 267.5C110.5 267.5 99.0908 262.917 92.0001 259.5C80.8947 254.148 74.7242 250.888 64.5001 244C54.0771 236.978 48.0524 233.715 40.5001 227C31.6305 219.114 27.0307 214.548 19.5001 206.5C13.9766 200.597 11.1041 196.965 7.00006 190C4.02947 184.959 1 178.5 0.500061 176.5C0.00012207 174.5 6.47233e-05 171.5 6.10352e-05 169.5C5.73471e-05 167.5 2.5 165.5 4.00006 165.5Z" fill="url(#paint1_linear_8_2)"/>
<path d="M437.5 2.00001C434.896 4.50002 244 196.5 242 198.5C240 200.5 241 203 243.5 203.5C246 204 317 203.5 318 203.5C319 203.5 320.5 205 319.5 207.5C318.5 210 262.655 353.688 261.5 356.5C260.345 359.312 263.5 360 264.5 359C265.5 358 448.5 148 448.5 148C449.947 145.936 448.72 143.997 447.5 144C446.28 144.003 383 144 377.5 144C372 144 373 140 374.5 137.5C376 135 442.488 6.85858 443 4.50001C443.512 2.14144 440.104 -0.500009 437.5 2.00001Z" fill="url(#paint2_linear_8_2)"/>
<defs>
<linearGradient id="paint0_linear_8_2" x1="393.25" y1="145.5" x2="393.25" y2="490" gradientUnits="userSpaceOnUse">
<stop stop-color="#FB9426"/>
<stop offset="1" stop-color="#F26A1B"/>
</linearGradient>
<linearGradient id="paint1_linear_8_2" x1="88.0002" y1="165.5" x2="88.0002" y2="283.541" gradientUnits="userSpaceOnUse">
<stop stop-color="#FB9426"/>
<stop offset="1" stop-color="#F26A1B"/>
</linearGradient>
<linearGradient id="paint2_linear_8_2" x1="345.046" y1="0.989746" x2="345.046" y2="359.434" gradientUnits="userSpaceOnUse">
<stop stop-color="#FB9426"/>
<stop offset="1" stop-color="#F26A1B"/>
</linearGradient>
</defs>
</svg>
