<svg width="630" height="346" viewBox="0 0 630 346" fill="none" xmlns="http://www.w3.org/2000/svg">
<path d="M624 0.510254C628.5 0.51027 630 4.01027 630 7.01025V50.5103C630 54.5102 626.438 55.8135 619.5 56.5103C601.611 59.73 591.322 62.2537 572.5 68.0103C558.031 72.6301 551.205 75.4331 539.5 80.5103C527.824 85.6053 521.511 88.787 510.5 95.0103C492.873 104.789 484.187 111.904 469 125.01C457.598 137.002 452.232 144.178 445 158.01C442.054 165.475 440.335 170.059 439 179.01C438.439 187.162 438.495 192.023 439 201.01C443.474 220.232 447.216 227.282 454.5 238.01C461.374 249.369 466.704 254.53 476.5 262.51C486.017 270.37 492.443 273.446 506 279.01C514.972 282.463 521.5 284.01 524 285.01C526.5 286.01 529.5 289.51 529.5 292.51V339.51C529.5 341.01 527 345.01 524.5 345.01H441.5C439.5 345.01 434.988 341.21 431 339.01C425.112 335.762 421.677 333.667 415.5 331.01C406.366 327.082 401.101 325.096 391.5 322.51C380.775 319.622 374.543 318.709 363.5 317.51C344.475 315.445 332.986 316.114 314 318.51L312.914 318.647C300.329 320.233 293.027 321.153 280.5 325.51C266.546 330.363 255.206 335.572 253.5 337.01C251.794 338.449 241.5 345.01 240 345.01H166.5C162.5 345.01 158.047 342.225 156.5 337.01V292.01C156.5 292.01 157.388 287.785 163 286.01C168.612 284.235 185 277.799 189.5 275.799C194 273.799 209.146 265.499 221 253.799C228.794 246.107 232.757 241.333 238.5 232.01C241.386 227.326 243.194 224.707 245 219.51C249.102 207.706 247.797 199.69 245 187.51C243.563 181.25 242.682 177.51 240 172.51C236.782 166.51 232.229 159.901 226.5 156.01C220.771 152.119 217.599 150.409 212 148.01C212.06 147.535 198.568 142.978 196 142.51C193.432 142.043 192.5 140.51 192.5 138.51V5.01025C192.5 1.51025 193.5 0.510239 197 0.510254H624Z" fill="url(#paint0_linear_8_2)"/>
<path d="M4 20.5103H171C172 20.5102 176.042 23.0103 176 26.5103C175.958 30.0102 176 134.01 176 136.51C176 139.01 173.5 138.51 172 138.51C170.5 138.51 164.28 137.875 160 137.01C149.138 134.814 143.11 133.209 132.5 130.01C123.809 127.39 110.5 122.51 110.5 122.51C110.5 122.51 99.0908 117.928 92 114.51C80.8946 109.158 74.7241 105.898 64.5 99.0103C54.077 91.9884 48.0523 88.725 40.5 82.0103C31.6304 74.1244 27.0307 69.558 19.5 61.5103C13.9766 55.6076 11.104 51.975 7 45.0103C4.02941 39.969 0.999939 33.5103 0.5 31.5103C6.10352e-05 29.5103 3.6881e-06 26.5103 0 24.5103C-3.68809e-06 22.5103 2.49994 20.5103 4 20.5103Z" fill="url(#paint1_linear_8_2)"/>
<defs>
<linearGradient id="paint0_linear_8_2" x1="393.25" y1="0.510284" x2="393.25" y2="345.01" gradientUnits="userSpaceOnUse">
<stop stop-color="#FB9426"/>
<stop offset="1" stop-color="#F26A1B"/>
</linearGradient>
<linearGradient id="paint1_linear_8_2" x1="88.0002" y1="20.5103" x2="88.0002" y2="138.551" gradientUnits="userSpaceOnUse">
<stop stop-color="#FB9426"/>
<stop offset="1" stop-color="#F26A1B"/>
</linearGradient>
</defs>
</svg>
