<svg width="454" height="612" viewBox="0 0 454 612" fill="none" xmlns="http://www.w3.org/2000/svg">
<path d="M294.377 589.7C294.377 592.641 293.968 594.605 292.425 597.647C290.757 600.932 289.396 602.704 286.473 604.987C284.098 606.841 282.444 607.507 279.596 608.582C275.424 610.155 268.3 610.696 268.3 610.696L242.729 611.174C242.683 611.177 234.445 611.701 229.306 610.61C225.635 609.83 223.527 609.252 220.19 607.514C217.488 606.107 216.033 605.118 213.773 603.087C211.418 600.97 210.117 599.64 208.54 596.926C207.019 594.309 206.538 592.618 205.875 589.7C205.128 586.415 204.905 584.362 204.905 579.169V197.318H294.377V589.7ZM324.733 0.00146484C326.331 0.000489705 329.526 0.000558241 333.121 1.59814L333.47 1.75244L334.948 2.41162C338.639 4.06754 343.899 6.54013 348.3 9.58643C353.472 13.1674 362.212 19.9191 362.279 19.9712C362.279 19.9712 376.963 31.0535 385.446 38.7446C394.03 46.5266 398.102 51.6708 405.817 60.314C417.109 72.9634 423.275 80.2472 433.378 93.8657C438.38 100.608 441.144 104.427 445.76 111.44C447.996 114.838 449.833 116.454 451.351 120.228C453.179 124.772 453.873 127.74 453.348 132.61C452.926 136.533 452.37 138.931 450.153 142.196C447.786 145.683 445.703 147.484 441.765 148.987C437.248 150.711 434.101 150.048 429.384 148.987C422.415 147.419 419.459 143.766 413.806 139.4C406.997 134.141 404.497 129.715 398.228 123.823C389.525 115.642 384.45 111.236 375.061 103.851C368.661 98.817 365.195 95.7769 358.285 91.4692C350.708 86.7455 346.423 83.7946 337.915 81.0835C334.094 79.8659 331.923 79.4858 330.325 80.2847C328.741 81.0766 328.728 82.6537 328.727 82.6812V165.763C328.727 169.358 327.392 171.396 325.133 174.152C322.856 176.929 319.94 179.344 317.544 179.344C317.544 179.344 303.961 179.344 301.966 179.343C299.971 179.342 298.352 181.475 296.773 183.337C295.468 184.876 294.865 187.509 294.592 189.329H204.8C204.624 187.518 204.157 184.901 202.908 183.337C201.556 181.644 200.514 179.342 198.514 179.343C196.522 179.344 186.205 179.344 186.133 179.344C180.541 179.344 181.019 179.109 178.143 177.747C174.156 175.858 172.979 174.243 170.555 170.557C168.326 167.169 167.671 164.306 165.362 160.971C162.848 157.339 161.961 155.254 158.173 152.982C153.942 150.445 150.185 149.387 144.992 149.387H117.831C116.234 149.387 115.094 150.796 113.436 152.583C111.052 155.152 109.042 158.175 107.046 160.971C105.049 163.768 103.452 164.965 98.6581 164.965H18.7723C13.5804 164.965 10.657 164.033 6.78989 160.971C2.67887 157.716 0.000195753 153.781 -0.000152588 149.387C-0.00050068 144.99 -0.000152996 24.907 -0.000152588 24.7661C-0.000152588 24.7661 -7.10497e-05 18.7749 4.3934 12.7837C8.78699 6.79249 11.1835 5.99272 15.577 5.99268H98.6581C102.253 5.993 106.248 9.98914 108.245 12.7837C110.241 15.5777 110.812 16.3767 112.638 18.3745C114.463 20.3726 115.034 21.1715 117.83 21.9692C120.626 22.7671 129.813 23.1665 132.609 21.9692C135.405 20.7721 135.223 20.7575 136.603 19.5728C138.379 18.0487 140.198 14.7798 140.198 14.7798L144.991 8.38916C144.991 8.38916 147.008 5.99898 148.586 4.79443C150.804 3.1016 150.983 2.79838 154.977 1.59912C158.971 0.39993 161.767 0.0022289 167.759 0.000488281C173.75 -0.00125162 323.124 0.00243961 324.733 0.00146484ZM100.059 51.1265C98.4027 51.1265 97.0595 52.4697 97.0594 54.1265V116.829C97.0597 118.485 98.4028 119.829 100.059 119.829H118.025C119.682 119.829 121.025 118.485 121.025 116.829V54.1265C121.025 52.4698 119.682 51.1265 118.025 51.1265H100.059Z" fill="url(#paint0_linear_17_29)"/>
<defs>
<linearGradient id="paint0_linear_17_29" x1="226.758" y1="4.80586e-05" x2="226.758" y2="611.302" gradientUnits="userSpaceOnUse">
<stop stop-color="#FB9426"/>
<stop offset="1" stop-color="#F26A1B"/>
</linearGradient>
</defs>
</svg>
